0
SECTION
2
HEADER
9
$ACADVER
1
AC1009
9
$TEXTSTYLE
7
STANDARD
9
$CECOLOR
62
256
9
$AUNITS
70
0
9
$LUNITS
70
3
9
$EXTMIN
10
75.5000000
20
9.0292500
9
$EXTMAX
10
411.0064600
20
253.4553500
9
$FILLMODE
70
1
0
ENDSEC
0
SECTION
2
TABLES
0
TABLE
2
LTYPE
70
2
0
LTYPE
2
T_DASH
70
0
3
Dashed Line
72
65
73
3
40
0.7
49
0.3
49
-0.1
49
0.3
0
LTYPE
2
T_DOT
70
0
3
Dotted Line
72
65
73
3
40
0.15
49
0.05
49
-0.05
49
0.05
0
ENDTAB
0
TABLE
2
LAYER
70
1
0
LAYER
2
Sheet1
70
64
62
2
6
CONTINUOUS
0
ENDTAB
0
TABLE
2
STYLE
70
2
0
STYLE
2
STANDARD
70
0
40
0.0000000
41
0.9000000
42
0.0000000
50
0.0
71
0
3

4

0
STYLE
2
_DefaultTTF_
70
0
40
3.1750000
41
0.9000000
42
3.1750000
50
0.0
71
0
3
arial.ttf
4

0
ENDTAB
0
ENDSEC
0
SECTION
2
BLOCKS
0
BLOCK
2
UNIT_DISC
8
0
70
0
10
0.0000000
20
0.0000000
0
POLYLINE
8
0
6
CONTINUOUS
66
1
70
1
40
0.5000000
41
0.5000000
0
VERTEX
8
0
10
0.2500000
20
0.0000000
42
1.0000000
0
VERTEX
8
0
10
-0.2500000
20
0.0000000
42
1.0000000
0
SEQEND
0
ENDBLK
0
BLOCK
2
UNIT_CIRCLE
8
0
70
0
10
0.0000000
20
0.0000000
0
CIRCLE
8
0
6
CONTINUOUS
10
0.0000000
20
0.0000000
40
0.5000000
0
ENDBLK
0
BLOCK
2
Sheet1_TSHEET
8
0
70
0
10
0.0000000
20
0.0000000
0
MTEXT
5
30000
100
AcDbEntity
8
0
100
AcDbMText
10
229.5000000
20
9.5000000
30
0.0
40
1.2000000
41
5.9190841
42
5.9190841
43
2.7182801
71
4
72
5
1
Утв.
0
MTEXT
5
30001
100
AcDbEntity
8
0
100
AcDbMText
10
231.5000000
20
39.5000000
30
0.0
40
1.2000000
41
5.7476521
42
5.7476521
43
2.7182801
71
5
72
5
1
Изм.
0
MTEXT
5
30002
100
AcDbEntity
8
0
100
AcDbMText
10
240.0000000
20
39.5000000
30
0.0
40
1.2000000
41
6.6905041
42
6.6905041
43
2.7182801
71
5
72
5
1
Лист
0
MTEXT
5
30003
100
AcDbEntity
8
0
100
AcDbMText
10
12.5000000
20
19.5000000
30
0.0
40
1.2000000
41
17.4905052
42
17.4905052
43
2.7182801
71
5
72
5
1
Инв. № подл.
11
0.0000000
21
1.0000000
31
0.0000000
0
MTEXT
5
30004
100
AcDbEntity
8
0
100
AcDbMText
10
12.5000000
20
49.5000000
30
0.0
40
1.2000000
41
17.6619358
42
17.6619358
43
2.7182801
71
5
72
5
1
Подп. и дата
11
0.0000000
21
1.0000000
31
0.0000000
0
MTEXT
5
30005
100
AcDbEntity
8
0
100
AcDbMText
10
12.5000000
20
79.5000000
30
0.0
40
1.2000000
41
17.0619373
42
17.0619373
43
2.7182801
71
5
72
5
1
Взам. инв. №
11
0.0000000
21
1.0000000
31
0.0000000
0
MTEXT
5
30006
100
AcDbEntity
8
0
100
AcDbMText
10
12.5000000
20
104.5000000
30
0.0
40
1.2000000
41
17.4048004
42
17.4048004
43
2.7182801
71
5
72
5
1
Инв. № дубл.
11
0.0000000
21
1.0000000
31
0.0000000
0
MTEXT
5
30007
100
AcDbEntity
8
0
100
AcDbMText
10
12.5000000
20
134.5000000
30
0.0
40
1.2000000
41
17.6619358
42
17.6619358
43
2.7182801
71
5
72
5
1
Подп. и дата
11
0.0000000
21
1.0000000
31
0.0000000
0
MTEXT
5
30008
100
AcDbEntity
8
0
100
AcDbMText
10
12.5000000
20
200.0000000
30
0.0
40
1.2000000
41
12.7762203
42
12.7762203
43
2.7182801
71
5
72
5
1
Справ. №
11
0.0000000
21
1.0000000
31
0.0000000
0
MTEXT
5
30009
100
AcDbEntity
8
0
100
AcDbMText
10
12.5000000
20
260.0000000
30
0.0
40
1.2000000
41
17.7476521
42
17.7476521
43
2.7182801
71
5
72
5
1
Перв. примен.
11
0.0000000
21
1.0000000
31
0.0000000
0
MTEXT
5
30010
100
AcDbEntity
8
0
100
AcDbMText
10
229.5000000
20
29.5000000
30
0.0
40
1.2000000
41
7.3762202
42
7.3762202
43
2.7182801
71
4
72
5
1
Пров.
0
LINE
8
0
6
CONTINUOUS
10
235.0000000
20
62.0000000
11
235.0000000
21
37.0000000
0
MTEXT
5
30011
100
AcDbEntity
8
0
100
AcDbMText
10
370.5000000
20
44.5000000
30
0.0
40
1.2000000
41
5.7476521
42
5.7476521
43
2.7182801
71
5
72
5
1
Лит.
0
LINE
8
0
6
CONTINUOUS
10
383.0000000
20
27.0000000
11
383.0000000
21
22.0000000
0
LINE
8
0
6
CONTINUOUS
10
92.0000000
20
276.0000000
11
92.0000000
21
290.0000000
0
LINE
8
0
6
CONTINUOUS
10
368.0000000
20
42.0000000
11
368.0000000
21
27.0000000
0
LINE
8
0
6
CONTINUOUS
10
373.0000000
20
42.0000000
11
373.0000000
21
27.0000000
0
LINE
8
0
6
CONTINUOUS
10
378.0000000
20
47.0000000
11
378.0000000
21
27.0000000
0
LINE
8
0
6
CONTINUOUS
10
395.0000000
20
47.0000000
11
395.0000000
21
27.0000000
0
LINE
8
0
6
CONTINUOUS
10
2.0000000
20
2.0000000
11
2.0000000
21
295.0000000
0
LINE
8
0
6
CONTINUOUS
10
15.0000000
20
7.0000000
11
15.0000000
21
152.0000000
0
LINE
8
0
6
CONTINUOUS
10
10.0000000
20
152.0000000
11
10.0000000
21
7.0000000
0
LINE
8
0
6
CONTINUOUS
10
15.0000000
20
170.0000000
11
15.0000000
21
290.0000000
0
LINE
8
0
6
CONTINUOUS
10
10.0000000
20
170.0000000
11
10.0000000
21
290.0000000
0
LINE
8
0
6
CONTINUOUS
10
22.0000000
20
7.0000000
11
22.0000000
21
290.0000000
0
LINE
8
0
6
CONTINUOUS
10
228.0000000
20
7.0000000
11
228.0000000
21
62.0000000
0
LINE
8
0
6
CONTINUOUS
10
245.0000000
20
62.0000000
11
245.0000000
21
7.0000000
0
LINE
8
0
6
CONTINUOUS
10
268.0000000
20
62.0000000
11
268.0000000
21
7.0000000
0
LINE
8
0
6
CONTINUOUS
10
283.0000000
20
62.0000000
11
283.0000000
21
7.0000000
0
LINE
8
0
6
CONTINUOUS
10
293.0000000
20
62.0000000
11
293.0000000
21
7.0000000
0
LINE
8
0
6
CONTINUOUS
10
363.0000000
20
7.0000000
11
363.0000000
21
47.0000000
0
LINE
8
0
6
CONTINUOUS
10
418.0000000
20
2.0000000
11
418.0000000
21
295.0000000
0
LINE
8
0
6
CONTINUOUS
10
413.0000000
20
290.0000000
11
413.0000000
21
7.0000000
0
LINE
8
0
6
CONTINUOUS
10
10.0000000
20
32.0000000
11
22.0000000
21
32.0000000
0
LINE
8
0
6
CONTINUOUS
10
10.0000000
20
67.0000000
11
22.0000000
21
67.0000000
0
LINE
8
0
6
CONTINUOUS
10
10.0000000
20
92.0000000
11
22.0000000
21
92.0000000
0
LINE
8
0
6
CONTINUOUS
10
10.0000000
20
117.0000000
11
22.0000000
21
117.0000000
0
LINE
8
0
6
CONTINUOUS
10
10.0000000
20
152.0000000
11
22.0000000
21
152.0000000
0
LINE
8
0
6
CONTINUOUS
10
10.0000000
20
170.0000000
11
22.0000000
21
170.0000000
0
LINE
8
0
6
CONTINUOUS
10
10.0000000
20
230.0000000
11
22.0000000
21
230.0000000
0
MTEXT
5
30012
100
AcDbEntity
8
0
100
AcDbMText
10
229.5000000
20
19.5000000
30
0.0
40
1.2000000
41
10.8048000
42
10.8048000
43
2.7182801
71
4
72
5
1
Нач.лаб.
0
MTEXT
5
30013
100
AcDbEntity
8
0
100
AcDbMText
10
229.5000000
20
24.5000000
30
0.0
40
1.2000000
41
10.5476522
42
10.5476522
43
2.7182801
71
4
72
5
1
Т.контр.
0
MTEXT
5
30014
100
AcDbEntity
8
0
100
AcDbMText
10
229.5000000
20
34.5000000
30
0.0
40
1.2000000
41
10.0333681
42
10.0333681
43
2.7182801
71
4
72
5
1
Разраб.
0
MTEXT
5
30015
100
AcDbEntity
8
0
100
AcDbMText
10
255.0000000
20
39.5000000
30
0.0
40
1.2000000
41
12.8619366
42
12.8619366
43
2.7182801
71
5
72
5
1
№ докум.
0
MTEXT
5
30016
100
AcDbEntity
8
0
100
AcDbMText
10
288.0000000
20
39.5000000
30
0.0
40
1.2000000
41
7.2905045
42
7.2905045
43
2.7182801
71
5
72
5
1
Дата
0
MTEXT
5
30017
100
AcDbEntity
8
0
100
AcDbMText
10
325.0000000
20
4.5000000
30
0.0
40
1.2000000
41
14.2333689
42
14.2333689
43
2.7182801
71
5
72
5
1
Копировал
0
MTEXT
5
30018
100
AcDbEntity
8
0
100
AcDbMText
10
363.5000000
20
24.5000000
30
0.0
40
1.2000000
41
6.6905041
42
6.6905041
43
2.7182801
71
4
72
5
1
Лист
0
MTEXT
5
30019
100
AcDbEntity
8
0
100
AcDbMText
10
385.0000000
20
4.5000000
30
0.0
40
1.2000000
41
14.7476530
42
14.7476530
43
2.7182801
71
5
72
5
1
Формат A3
0
MTEXT
5
30020
100
AcDbEntity
8
0
100
AcDbMText
10
383.5000000
20
24.5000000
30
0.0
40
1.2000000
41
9.7762203
42
9.7762203
43
2.7182801
71
4
72
5
1
Листов
0
MTEXT
5
30021
100
AcDbEntity
8
0
100
AcDbMText
10
370.0000000
20
24.5000000
30
0.0
40
1.2000000
41
8.9190845
42
8.9190845
43
2.7182801
71
4
72
5
1
 
0
MTEXT
5
30022
100
AcDbEntity
8
0
100
AcDbMText
10
229.5000000
20
14.5000000
30
0.0
40
1.2000000
41
10.5476522
42
10.5476522
43
2.7182801
71
4
72
5
1
Н.контр.
0
MTEXT
5
30023
100
AcDbEntity
8
0
100
AcDbMText
10
386.5000000
20
44.5000000
30
0.0
40
1.2000000
41
8.4048004
42
8.4048004
43
2.7182801
71
5
72
5
1
Масса
0
LINE
8
0
6
CONTINUOUS
10
22.0000000
20
276.0000000
11
92.0000000
21
276.0000000
0
MTEXT
5
30024
100
AcDbEntity
8
0
100
AcDbMText
10
246.0000000
20
9.5000000
30
0.0
40
1.2000000
41
15.1762209
42
15.1762209
43
2.7182801
71
4
72
5
1
 
0
MTEXT
5
30025
100
AcDbEntity
8
0
100
AcDbMText
10
246.0000000
20
19.5000000
30
0.0
40
1.2000000
41
13.2905045
42
13.2905045
43
2.7182801
71
4
72
5
1
 
0
MTEXT
5
30026
100
AcDbEntity
8
0
100
AcDbMText
10
246.0000000
20
24.5000000
30
0.0
40
1.2000000
41
12.7762203
42
12.7762203
43
2.7182801
71
4
72
5
1
 
0
MTEXT
5
30027
100
AcDbEntity
8
0
100
AcDbMText
10
246.0000000
20
34.5000000
30
0.0
40
1.2000000
41
17.7476521
42
17.7476521
43
2.7182801
71
4
72
5
1
 
0
MTEXT
5
30028
100
AcDbEntity
8
0
100
AcDbMText
10
275.5000000
20
39.5000000
30
0.0
40
1.2000000
41
7.7190843
42
7.7190843
43
2.7182801
71
5
72
5
1
Подп.
0
MTEXT
5
30029
100
AcDbEntity
8
0
100
AcDbMText
10
392.5000000
20
24.5000000
30
0.0
40
1.2000000
41
12.0048008
42
12.0048008
43
2.7182801
71
4
72
5
1
1
0
MTEXT
5
30030
100
AcDbEntity
8
0
100
AcDbMText
10
57.0000000
20
283.0000000
30
0.0
40
3.0000000
41
61.9119377
42
61.9119377
43
6.4147100
71
5
72
5
1
 
0
MTEXT
5
30031
100
AcDbEntity
8
0
100
AcDbMText
10
246.0000000
20
29.5000000
30
0.0
40
1.2000000
41
14.8333683
42
14.8333683
43
2.7182801
71
4
72
5
1
 
0
MTEXT
5
30032
100
AcDbEntity
8
0
100
AcDbMText
10
246.0000000
20
14.5000000
30
0.0
40
1.2000000
41
12.7762203
42
12.7762203
43
2.7182801
71
4
72
5
1
 
0
MTEXT
5
30033
100
AcDbEntity
8
0
100
AcDbMText
10
328.0000000
20
29.0000000
30
0.0
40
1.5000000
41
33.1440849
42
33.1440849
43
3.3343501
71
5
72
5
1
Схема электрическая принципиальная
0
MTEXT
5
30034
100
AcDbEntity
8
0
100
AcDbMText
10
353.0000000
20
55.0000000
30
0.0
40
3.0000000
41
62.1262207
42
62.1262207
43
6.4147100
71
5
72
5
1
 
0
MTEXT
5
30035
100
AcDbEntity
8
0
100
AcDbMText
10
328.0000000
20
40.0000000
30
0.0
40
2.4000001
41
63.8190880
42
63.8190880
43
5.1825700
71
5
72
5
1
ЩС-13
0
MTEXT
5
30036
100
AcDbEntity
8
0
100
AcDbMText
10
404.0000000
20
44.5000000
30
0.0
40
1.2000000
41
9.5190840
42
9.5190840
43
2.7182801
71
5
72
5
1
Масшт.
0
LINE
8
0
6
CONTINUOUS
10
413.0000000
20
7.0000000
11
10.0000000
21
7.0000000
0
LINE
8
0
6
CONTINUOUS
10
2.0000000
20
2.0000000
11
418.0000000
21
2.0000000
0
LINE
8
0
6
CONTINUOUS
10
228.0000000
20
12.0000000
11
293.0000000
21
12.0000000
0
LINE
8
0
6
CONTINUOUS
10
228.0000000
20
17.0000000
11
293.0000000
21
17.0000000
0
LINE
8
0
6
CONTINUOUS
10
228.0000000
20
22.0000000
11
413.0000000
21
22.0000000
0
LINE
8
0
6
CONTINUOUS
10
228.0000000
20
27.0000000
11
293.0000000
21
27.0000000
0
LINE
8
0
6
CONTINUOUS
10
363.0000000
20
27.0000000
11
413.0000000
21
27.0000000
0
LINE
8
0
6
CONTINUOUS
10
228.0000000
20
37.0000000
11
293.0000000
21
37.0000000
0
LINE
8
0
6
CONTINUOUS
10
228.0000000
20
32.0000000
11
293.0000000
21
32.0000000
0
LINE
8
0
6
CONTINUOUS
10
228.0000000
20
42.0000000
11
293.0000000
21
42.0000000
0
LINE
8
0
6
CONTINUOUS
10
363.0000000
20
42.0000000
11
413.0000000
21
42.0000000
0
LINE
8
0
6
CONTINUOUS
10
228.0000000
20
52.0000000
11
293.0000000
21
52.0000000
0
LINE
8
0
6
CONTINUOUS
10
413.0000000
20
47.0000000
11
228.0000000
21
47.0000000
0
LINE
8
0
6
CONTINUOUS
10
228.0000000
20
57.0000000
11
293.0000000
21
57.0000000
0
LINE
8
0
6
CONTINUOUS
10
228.0000000
20
62.0000000
11
413.0000000
21
62.0000000
0
LINE
8
0
6
CONTINUOUS
10
10.0000000
20
290.0000000
11
413.0000000
21
290.0000000
0
LINE
8
0
6
CONTINUOUS
10
418.0000000
20
295.0000000
11
2.0000000
21
295.0000000
0
ENDBLK
0
ENDSEC
0
SECTION
2
ENTITIES
0
INSERT
8
0
2
Sheet1_TSHEET
10
0.0000000
20
0.0000000
41
1.0000000
42
1.0000000
43
1.0000000
50
0.0000000
0
LINE
8
Sheet1
6
CONTINUOUS
10
89.0000000
20
186.0000000
11
87.0000000
21
185.0000000
0
LINE
8
Sheet1
6
CONTINUOUS
10
93.0000000
20
138.0000000
11
94.0000000
21
143.0000000
0
LINE
8
Sheet1
6
CONTINUOUS
10
94.0000000
20
143.0000000
11
92.0000000
21
143.0000000
0
LINE
8
Sheet1
6
CONTINUOUS
10
92.0000000
20
143.0000000
11
93.0000000
21
138.0000000
0
LINE
8
Sheet1
6
CONTINUOUS
10
112.0000000
20
143.0000000
11
113.0000000
21
138.0000000
0
LINE
8
Sheet1
6
CONTINUOUS
10
110.0000000
20
179.0000000
11
112.0000000
21
180.0000000
0
LINE
8
Sheet1
6
CONTINUOUS
10
129.0000000
20
186.0000000
11
127.0000000
21
185.0000000
0
LINE
8
Sheet1
6
CONTINUOUS
10
132.0000000
20
143.0000000
11
133.0000000
21
138.0000000
0
LINE
8
Sheet1
6
CONTINUOUS
10
134.0000000
20
143.0000000
11
132.0000000
21
143.0000000
0
LINE
8
Sheet1
6
CONTINUOUS
10
133.0000000
20
138.0000000
11
134.0000000
21
143.0000000
0
LINE
8
Sheet1
6
CONTINUOUS
10
130.0000000
20
179.0000000
11
132.0000000
21
180.0000000
0
LINE
8
Sheet1
6
CONTINUOUS
10
131.0000000
20
193.0000000
11
135.0000000
21
196.0000000
0
LINE
8
Sheet1
6
CONTINUOUS
10
150.0000000
20
179.0000000
11
152.0000000
21
180.0000000
0
LINE
8
Sheet1
6
CONTINUOUS
10
149.0000000
20
186.0000000
11
147.0000000
21
185.0000000
0
LINE
8
Sheet1
6
CONTINUOUS
10
153.0000000
20
138.0000000
11
154.0000000
21
143.0000000
0
LINE
8
Sheet1
6
CONTINUOUS
10
173.0000000
20
138.0000000
11
174.0000000
21
143.0000000
0
LINE
8
Sheet1
6
CONTINUOUS
10
174.0000000
20
143.0000000
11
172.0000000
21
143.0000000
0
LINE
8
Sheet1
6
CONTINUOUS
10
172.0000000
20
143.0000000
11
173.0000000
21
138.0000000
0
LINE
8
Sheet1
6
CONTINUOUS
10
170.0000000
20
179.0000000
11
172.0000000
21
180.0000000
0
LINE
8
Sheet1
6
CONTINUOUS
10
189.0000000
20
186.0000000
11
187.0000000
21
185.0000000
0
LINE
8
Sheet1
6
CONTINUOUS
10
192.0000000
20
143.0000000
11
193.0000000
21
138.0000000
0
LINE
8
Sheet1
6
CONTINUOUS
10
194.0000000
20
143.0000000
11
192.0000000
21
143.0000000
0
LINE
8
Sheet1
6
CONTINUOUS
10
193.0000000
20
138.0000000
11
194.0000000
21
143.0000000
0
LINE
8
Sheet1
6
CONTINUOUS
10
191.0000000
20
193.0000000
11
195.0000000
21
196.0000000
0
LINE
8
Sheet1
6
CONTINUOUS
10
210.0000000
20
179.0000000
11
212.0000000
21
180.0000000
0
LINE
8
Sheet1
6
CONTINUOUS
10
209.0000000
20
186.0000000
11
207.0000000
21
185.0000000
0
LINE
8
Sheet1
6
CONTINUOUS
10
219.0000000
20
227.0000000
11
217.0000000
21
226.0000000
0
LINE
8
Sheet1
6
CONTINUOUS
10
233.0000000
20
138.0000000
11
234.0000000
21
143.0000000
0
LINE
8
Sheet1
6
CONTINUOUS
10
234.0000000
20
143.0000000
11
232.0000000
21
143.0000000
0
LINE
8
Sheet1
6
CONTINUOUS
10
232.0000000
20
143.0000000
11
233.0000000
21
138.0000000
0
LINE
8
Sheet1
6
CONTINUOUS
10
230.0000000
20
179.0000000
11
232.0000000
21
180.0000000
0
LINE
8
Sheet1
6
CONTINUOUS
10
231.0000000
20
193.0000000
11
235.0000000
21
196.0000000
0
LINE
8
Sheet1
6
CONTINUOUS
10
249.0000000
20
186.0000000
11
247.0000000
21
185.0000000
0
LINE
8
Sheet1
6
CONTINUOUS
10
253.0000000
20
138.0000000
11
254.0000000
21
143.0000000
0
LINE
8
Sheet1
6
CONTINUOUS
10
254.0000000
20
143.0000000
11
252.0000000
21
143.0000000
0
LINE
8
Sheet1
6
CONTINUOUS
10
252.0000000
20
143.0000000
11
253.0000000
21
138.0000000
0
LINE
8
Sheet1
6
CONTINUOUS
10
272.0000000
20
143.0000000
11
273.0000000
21
138.0000000
0
LINE
8
Sheet1
6
CONTINUOUS
10
270.0000000
20
179.0000000
11
272.0000000
21
180.0000000
0
LINE
8
Sheet1
6
CONTINUOUS
10
289.0000000
20
186.0000000
11
287.0000000
21
185.0000000
0
LINE
8
Sheet1
6
CONTINUOUS
10
292.0000000
20
143.0000000
11
293.0000000
21
138.0000000
0
LINE
8
Sheet1
6
CONTINUOUS
10
294.0000000
20
143.0000000
11
292.0000000
21
143.0000000
0
LINE
8
Sheet1
6
CONTINUOUS
10
293.0000000
20
138.0000000
11
294.0000000
21
143.0000000
0
LINE
8
Sheet1
6
CONTINUOUS
10
290.0000000
20
179.0000000
11
292.0000000
21
180.0000000
0
LINE
8
Sheet1
6
CONTINUOUS
10
291.0000000
20
193.0000000
11
295.0000000
21
196.0000000
0
LINE
8
Sheet1
6
CONTINUOUS
10
310.0000000
20
179.0000000
11
312.0000000
21
180.0000000
0
LINE
8
Sheet1
6
CONTINUOUS
10
309.0000000
20
186.0000000
11
307.0000000
21
185.0000000
0
LINE
8
Sheet1
6
CONTINUOUS
10
313.0000000
20
138.0000000
11
314.0000000
21
143.0000000
0
LINE
8
Sheet1
6
CONTINUOUS
10
333.0000000
20
138.0000000
11
334.0000000
21
143.0000000
0
LINE
8
Sheet1
6
CONTINUOUS
10
334.0000000
20
143.0000000
11
332.0000000
21
143.0000000
0
LINE
8
Sheet1
6
CONTINUOUS
10
332.0000000
20
143.0000000
11
333.0000000
21
138.0000000
0
LINE
8
Sheet1
6
CONTINUOUS
10
330.0000000
20
179.0000000
11
332.0000000
21
180.0000000
0
LINE
8
Sheet1
6
CONTINUOUS
10
349.0000000
20
186.0000000
11
347.0000000
21
185.0000000
0
LINE
8
Sheet1
6
CONTINUOUS
10
353.0000000
20
138.0000000
11
354.0000000
21
143.0000000
0
LINE
8
Sheet1
6
CONTINUOUS
10
354.0000000
20
143.0000000
11
352.0000000
21
143.0000000
0
LINE
8
Sheet1
6
CONTINUOUS
10
352.0000000
20
143.0000000
11
353.0000000
21
138.0000000
0
LINE
8
Sheet1
6
CONTINUOUS
10
351.0000000
20
193.0000000
11
355.0000000
21
196.0000000
0
LINE
8
Sheet1
6
CONTINUOUS
10
87.0000000
20
185.0000000
11
90.0000000
21
179.0000000
0
LINE
8
Sheet1
6
CONTINUOUS
10
93.0000000
20
189.0000000
11
93.0000000
21
204.0000000
0
MTEXT
5
30037
100
AcDbEntity
8
Sheet1
100
AcDbMText
10
93.0000000
20
207.0000000
30
0.0
40
2.4000001
41
2.7428522
42
2.7428522
43
5.4285698
71
5
72
5
1
1
0
LINE
8
Sheet1
6
CONTINUOUS
10
113.0000000
20
189.0000000
11
113.0000000
21
204.0000000
0
LINE
8
Sheet1
6
CONTINUOUS
10
133.0000000
20
189.0000000
11
133.0000000
21
204.0000000
0
LINE
8
Sheet1
6
CONTINUOUS
10
131.0000000
20
195.0000000
11
135.0000000
21
198.0000000
0
LINE
8
Sheet1
6
CONTINUOUS
10
131.0000000
20
197.0000000
11
135.0000000
21
200.0000000
0
MTEXT
5
30038
100
AcDbEntity
8
Sheet1
100
AcDbMText
10
133.0000000
20
207.0000000
30
0.0
40
2.4000001
41
4.1142840
42
4.1142840
43
5.4285698
71
5
72
5
1
3
0
LINE
8
Sheet1
6
CONTINUOUS
10
147.0000000
20
185.0000000
11
150.0000000
21
179.0000000
0
LINE
8
Sheet1
6
CONTINUOUS
10
153.0000000
20
189.0000000
11
153.0000000
21
204.0000000
0
LINE
8
Sheet1
6
CONTINUOUS
10
173.0000000
20
189.0000000
11
173.0000000
21
204.0000000
0
MTEXT
5
30039
100
AcDbEntity
8
Sheet1
100
AcDbMText
10
173.0000000
20
207.0000000
30
0.0
40
2.4000001
41
4.2857041
42
4.2857041
43
5.4285698
71
5
72
5
1
5
0
LINE
8
Sheet1
6
CONTINUOUS
10
187.0000000
20
185.0000000
11
190.0000000
21
179.0000000
0
LINE
8
Sheet1
6
CONTINUOUS
10
193.0000000
20
189.0000000
11
193.0000000
21
204.0000000
0
LINE
8
Sheet1
6
CONTINUOUS
10
191.0000000
20
195.0000000
11
195.0000000
21
198.0000000
0
LINE
8
Sheet1
6
CONTINUOUS
10
191.0000000
20
197.0000000
11
195.0000000
21
200.0000000
0
MTEXT
5
30040
100
AcDbEntity
8
Sheet1
100
AcDbMText
10
193.0000000
20
207.0000000
30
0.0
40
2.4000001
41
4.2857041
42
4.2857041
43
5.4285698
71
5
72
5
1
6
0
LINE
8
Sheet1
6
CONTINUOUS
10
207.0000000
20
185.0000000
11
210.0000000
21
179.0000000
0
LINE
8
Sheet1
6
CONTINUOUS
10
217.0000000
20
226.0000000
11
220.0000000
21
220.0000000
0
LINE
8
Sheet1
6
CONTINUOUS
10
223.0000000
20
230.0000000
11
223.0000000
21
246.0000000
0
LINE
8
Sheet1
6
CONTINUOUS
10
233.0000000
20
189.0000000
11
233.0000000
21
204.0000000
0
LINE
8
Sheet1
6
CONTINUOUS
10
231.0000000
20
195.0000000
11
235.0000000
21
198.0000000
0
LINE
8
Sheet1
6
CONTINUOUS
10
231.0000000
20
197.0000000
11
235.0000000
21
200.0000000
0
MTEXT
5
30041
100
AcDbEntity
8
Sheet1
100
AcDbMText
10
233.0000000
20
207.0000000
30
0.0
40
2.4000001
41
4.2857041
42
4.2857041
43
5.4285698
71
5
72
5
1
8
0
LINE
8
Sheet1
6
CONTINUOUS
10
247.0000000
20
185.0000000
11
250.0000000
21
179.0000000
0
LINE
8
Sheet1
6
CONTINUOUS
10
253.0000000
20
189.0000000
11
253.0000000
21
204.0000000
0
LINE
8
Sheet1
6
CONTINUOUS
10
273.0000000
20
189.0000000
11
273.0000000
21
204.0000000
0
LINE
8
Sheet1
6
CONTINUOUS
10
293.0000000
20
189.0000000
11
293.0000000
21
204.0000000
0
LINE
8
Sheet1
6
CONTINUOUS
10
291.0000000
20
195.0000000
11
295.0000000
21
198.0000000
0
LINE
8
Sheet1
6
CONTINUOUS
10
291.0000000
20
197.0000000
11
295.0000000
21
200.0000000
0
MTEXT
5
30042
100
AcDbEntity
8
Sheet1
100
AcDbMText
10
293.0000000
20
207.0000000
30
0.0
40
2.4000001
41
4.2857041
42
4.2857041
43
5.4285698
71
5
72
5
1
11
0
LINE
8
Sheet1
6
CONTINUOUS
10
307.0000000
20
185.0000000
11
310.0000000
21
179.0000000
0
LINE
8
Sheet1
6
CONTINUOUS
10
313.0000000
20
189.0000000
11
313.0000000
21
204.0000000
0
LINE
8
Sheet1
6
CONTINUOUS
10
333.0000000
20
189.0000000
11
333.0000000
21
204.0000000
0
LINE
8
Sheet1
6
CONTINUOUS
10
347.0000000
20
185.0000000
11
350.0000000
21
179.0000000
0
LINE
8
Sheet1
6
CONTINUOUS
10
353.0000000
20
189.0000000
11
353.0000000
21
204.0000000
0
LINE
8
Sheet1
6
CONTINUOUS
10
351.0000000
20
195.0000000
11
355.0000000
21
198.0000000
0
LINE
8
Sheet1
6
CONTINUOUS
10
351.0000000
20
197.0000000
11
355.0000000
21
200.0000000
0
LINE
8
Sheet1
6
CONTINUOUS
10
113.0000000
20
178.0000000
11
108.0000000
21
188.0000000
0
MTEXT
5
30043
100
AcDbEntity
8
Sheet1
100
AcDbMText
10
110.0000000
20
160.0000000
30
0.0
40
2.4000001
41
31.5428524
42
31.5428524
43
5.4285698
71
5
72
5
1
ВВГнг 5*2.5
11
0.0000000
21
1.0000000
31
0.0000000
0
MTEXT
5
30044
100
AcDbEntity
8
Sheet1
100
AcDbMText
10
210.0000000
20
160.0000000
30
0.0
40
2.4000001
41
28.8000011
42
28.8000011
43
5.4285698
71
5
72
5
1
ВВГнг 5*16
11
0.0000000
21
1.0000000
31
0.0000000
0
LINE
8
Sheet1
6
CONTINUOUS
10
223.0000000
20
204.0000000
11
223.0000000
21
219.0000000
0
LINE
8
Sheet1
6
CONTINUOUS
10
273.0000000
20
178.0000000
11
268.0000000
21
188.0000000
0
LINE
8
Sheet1
6
CONTINUOUS
10
93.0000000
20
138.0000000
11
93.0000000
21
178.0000000
0
LINE
8
Sheet1
6
CONTINUOUS
10
113.0000000
20
138.0000000
11
113.0000000
21
178.0000000
0
LINE
8
Sheet1
6
CONTINUOUS
10
133.0000000
20
138.0000000
11
133.0000000
21
178.0000000
0
LINE
8
Sheet1
6
CONTINUOUS
10
153.0000000
20
138.0000000
11
153.0000000
21
178.0000000
0
LINE
8
Sheet1
6
CONTINUOUS
10
173.0000000
20
138.0000000
11
173.0000000
21
178.0000000
0
LINE
8
Sheet1
6
CONTINUOUS
10
193.0000000
20
138.0000000
11
193.0000000
21
178.0000000
0
LINE
8
Sheet1
6
CONTINUOUS
10
233.0000000
20
138.0000000
11
233.0000000
21
178.0000000
0
LINE
8
Sheet1
6
CONTINUOUS
10
253.0000000
20
138.0000000
11
253.0000000
21
178.0000000
0
LINE
8
Sheet1
6
CONTINUOUS
10
273.0000000
20
138.0000000
11
273.0000000
21
178.0000000
0
LINE
8
Sheet1
6
CONTINUOUS
10
293.0000000
20
138.0000000
11
293.0000000
21
178.0000000
0
LINE
8
Sheet1
6
CONTINUOUS
10
313.0000000
20
138.0000000
11
313.0000000
21
178.0000000
0
LINE
8
Sheet1
6
CONTINUOUS
10
333.0000000
20
138.0000000
11
333.0000000
21
178.0000000
0
LINE
8
Sheet1
6
CONTINUOUS
10
353.0000000
20
138.0000000
11
353.0000000
21
178.0000000
0
LINE
8
Sheet1
6
CONTINUOUS
10
90.0000000
20
179.0000000
11
92.0000000
21
180.0000000
0
LINE
8
Sheet1
6
CONTINUOUS
10
114.0000000
20
143.0000000
11
112.0000000
21
143.0000000
0
LINE
8
Sheet1
6
CONTINUOUS
10
113.0000000
20
138.0000000
11
114.0000000
21
143.0000000
0
LINE
8
Sheet1
6
CONTINUOUS
10
109.0000000
20
186.0000000
11
107.0000000
21
185.0000000
0
LINE
8
Sheet1
6
CONTINUOUS
10
111.0000000
20
193.0000000
11
115.0000000
21
196.0000000
0
LINE
8
Sheet1
6
CONTINUOUS
10
154.0000000
20
143.0000000
11
152.0000000
21
143.0000000
0
LINE
8
Sheet1
6
CONTINUOUS
10
152.0000000
20
143.0000000
11
153.0000000
21
138.0000000
0
LINE
8
Sheet1
6
CONTINUOUS
10
151.0000000
20
193.0000000
11
155.0000000
21
196.0000000
0
LINE
8
Sheet1
6
CONTINUOUS
10
169.0000000
20
186.0000000
11
167.0000000
21
185.0000000
0
LINE
8
Sheet1
6
CONTINUOUS
10
171.0000000
20
193.0000000
11
175.0000000
21
196.0000000
0
LINE
8
Sheet1
6
CONTINUOUS
10
212.0000000
20
143.0000000
11
213.0000000
21
138.0000000
0
LINE
8
Sheet1
6
CONTINUOUS
10
214.0000000
20
143.0000000
11
212.0000000
21
143.0000000
0
LINE
8
Sheet1
6
CONTINUOUS
10
213.0000000
20
138.0000000
11
214.0000000
21
143.0000000
0
LINE
8
Sheet1
6
CONTINUOUS
10
190.0000000
20
179.0000000
11
192.0000000
21
180.0000000
0
LINE
8
Sheet1
6
CONTINUOUS
10
211.0000000
20
193.0000000
11
215.0000000
21
196.0000000
0
LINE
8
Sheet1
6
CONTINUOUS
10
229.0000000
20
186.0000000
11
227.0000000
21
185.0000000
0
LINE
8
Sheet1
6
CONTINUOUS
10
221.0000000
20
240.0000000
11
225.0000000
21
243.0000000
0
LINE
8
Sheet1
6
CONTINUOUS
10
221.0000000
20
238.0000000
11
225.0000000
21
241.0000000
0
LINE
8
Sheet1
6
CONTINUOUS
10
273.0000000
20
138.0000000
11
274.0000000
21
143.0000000
0
LINE
8
Sheet1
6
CONTINUOUS
10
274.0000000
20
143.0000000
11
272.0000000
21
143.0000000
0
LINE
8
Sheet1
6
CONTINUOUS
10
250.0000000
20
179.0000000
11
252.0000000
21
180.0000000
0
LINE
8
Sheet1
6
CONTINUOUS
10
269.0000000
20
186.0000000
11
267.0000000
21
185.0000000
0
LINE
8
Sheet1
6
CONTINUOUS
10
271.0000000
20
193.0000000
11
275.0000000
21
196.0000000
0
LINE
8
Sheet1
6
CONTINUOUS
10
251.0000000
20
193.0000000
11
255.0000000
21
196.0000000
0
LINE
8
Sheet1
6
CONTINUOUS
10
314.0000000
20
143.0000000
11
312.0000000
21
143.0000000
0
LINE
8
Sheet1
6
CONTINUOUS
10
312.0000000
20
143.0000000
11
313.0000000
21
138.0000000
0
LINE
8
Sheet1
6
CONTINUOUS
10
329.0000000
20
186.0000000
11
327.0000000
21
185.0000000
0
LINE
8
Sheet1
6
CONTINUOUS
10
311.0000000
20
193.0000000
11
315.0000000
21
196.0000000
0
LINE
8
Sheet1
6
CONTINUOUS
10
331.0000000
20
193.0000000
11
335.0000000
21
196.0000000
0
LINE
8
Sheet1
6
CONTINUOUS
10
350.0000000
20
179.0000000
11
352.0000000
21
180.0000000
0
MTEXT
5
30045
100
AcDbEntity
8
Sheet1
100
AcDbMText
10
404.0000000
20
35.0000000
30
0.0
40
1.5000000
41
7.0012202
42
7.0012202
43
3.3343501
71
5
72
5
1
Б/М
0
LINE
8
Sheet1
6
CONTINUOUS
10
107.0000000
20
185.0000000
11
110.0000000
21
179.0000000
0
LINE
8
Sheet1
6
CONTINUOUS
10
111.0000000
20
195.0000000
11
115.0000000
21
198.0000000
0
LINE
8
Sheet1
6
CONTINUOUS
10
111.0000000
20
197.0000000
11
115.0000000
21
200.0000000
0
MTEXT
5
30046
100
AcDbEntity
8
Sheet1
100
AcDbMText
10
113.0000000
20
207.0000000
30
0.0
40
2.4000001
41
4.4571362
42
4.4571362
43
5.4285698
71
5
72
5
1
2
0
LINE
8
Sheet1
6
CONTINUOUS
10
127.0000000
20
185.0000000
11
130.0000000
21
179.0000000
0
LINE
8
Sheet1
6
CONTINUOUS
10
151.0000000
20
195.0000000
11
155.0000000
21
198.0000000
0
LINE
8
Sheet1
6
CONTINUOUS
10
151.0000000
20
197.0000000
11
155.0000000
21
200.0000000
0
MTEXT
5
30047
100
AcDbEntity
8
Sheet1
100
AcDbMText
10
153.0000000
20
207.0000000
30
0.0
40
2.4000001
41
4.6285682
42
4.6285682
43
5.4285698
71
5
72
5
1
4
0
LINE
8
Sheet1
6
CONTINUOUS
10
167.0000000
20
185.0000000
11
170.0000000
21
179.0000000
0
LINE
8
Sheet1
6
CONTINUOUS
10
171.0000000
20
195.0000000
11
175.0000000
21
198.0000000
0
LINE
8
Sheet1
6
CONTINUOUS
10
171.0000000
20
197.0000000
11
175.0000000
21
200.0000000
0
LINE
8
Sheet1
6
CONTINUOUS
10
211.0000000
20
195.0000000
11
215.0000000
21
198.0000000
0
LINE
8
Sheet1
6
CONTINUOUS
10
211.0000000
20
197.0000000
11
215.0000000
21
200.0000000
0
LINE
8
Sheet1
6
CONTINUOUS
10
213.0000000
20
189.0000000
11
213.0000000
21
204.0000000
0
MTEXT
5
30048
100
AcDbEntity
8
Sheet1
100
AcDbMText
10
213.0000000
20
207.0000000
30
0.0
40
2.4000001
41
4.4571362
42
4.4571362
43
5.4285698
71
5
72
5
1
7
0
LINE
8
Sheet1
6
CONTINUOUS
10
227.0000000
20
185.0000000
11
230.0000000
21
179.0000000
0
LINE
8
Sheet1
6
CONTINUOUS
10
220.0000000
20
220.0000000
11
222.0000000
21
221.0000000
0
LINE
8
Sheet1
6
CONTINUOUS
10
221.0000000
20
236.0000000
11
225.0000000
21
239.0000000
0
LINE
8
Sheet1
6
CONTINUOUS
10
223.0000000
20
219.0000000
11
218.0000000
21
229.0000000
0
LINE
8
Sheet1
6
CONTINUOUS
10
267.0000000
20
185.0000000
11
270.0000000
21
179.0000000
0
LINE
8
Sheet1
6
CONTINUOUS
10
271.0000000
20
195.0000000
11
275.0000000
21
198.0000000
0
LINE
8
Sheet1
6
CONTINUOUS
10
271.0000000
20
197.0000000
11
275.0000000
21
200.0000000
0
MTEXT
5
30049
100
AcDbEntity
8
Sheet1
100
AcDbMText
10
273.0000000
20
207.0000000
30
0.0
40
2.4000001
41
6.0000000
42
6.0000000
43
5.4285698
71
5
72
5
1
10
0
LINE
8
Sheet1
6
CONTINUOUS
10
251.0000000
20
195.0000000
11
255.0000000
21
198.0000000
0
LINE
8
Sheet1
6
CONTINUOUS
10
251.0000000
20
197.0000000
11
255.0000000
21
200.0000000
0
MTEXT
5
30050
100
AcDbEntity
8
Sheet1
100
AcDbMText
10
253.0000000
20
207.0000000
30
0.0
40
2.4000001
41
4.2857041
42
4.2857041
43
5.4285698
71
5
72
5
1
9
0
LINE
8
Sheet1
6
CONTINUOUS
10
287.0000000
20
185.0000000
11
290.0000000
21
179.0000000
0
LINE
8
Sheet1
6
CONTINUOUS
10
327.0000000
20
185.0000000
11
330.0000000
21
179.0000000
0
LINE
8
Sheet1
6
CONTINUOUS
10
311.0000000
20
195.0000000
11
315.0000000
21
198.0000000
0
LINE
8
Sheet1
6
CONTINUOUS
10
311.0000000
20
197.0000000
11
315.0000000
21
200.0000000
0
MTEXT
5
30051
100
AcDbEntity
8
Sheet1
100
AcDbMText
10
313.0000000
20
207.0000000
30
0.0
40
2.4000001
41
6.0000000
42
6.0000000
43
5.4285698
71
5
72
5
1
12
0
LINE
8
Sheet1
6
CONTINUOUS
10
331.0000000
20
195.0000000
11
335.0000000
21
198.0000000
0
LINE
8
Sheet1
6
CONTINUOUS
10
331.0000000
20
197.0000000
11
335.0000000
21
200.0000000
0
MTEXT
5
30052
100
AcDbEntity
8
Sheet1
100
AcDbMText
10
333.0000000
20
207.0000000
30
0.0
40
2.4000001
41
5.6571364
42
5.6571364
43
5.4285698
71
5
72
5
1
13
0
MTEXT
5
30053
100
AcDbEntity
8
Sheet1
100
AcDbMText
10
353.0000000
20
207.0000000
30
0.0
40
2.4000001
41
6.1714201
42
6.1714201
43
5.4285698
71
5
72
5
1
14
0
LINE
8
Sheet1
6
CONTINUOUS
10
93.0000000
20
178.0000000
11
88.0000000
21
188.0000000
0
MTEXT
5
30054
100
AcDbEntity
8
Sheet1
100
AcDbMText
10
81.0000000
20
184.0000000
30
0.0
40
2.4000001
41
26.7428532
42
26.7428532
43
11.0000000
71
5
72
5
1
ВА47-100\P   80А \P
11
0.0000000
21
1.0000000
31
0.0000000
0
MTEXT
5
30055
100
AcDbEntity
8
Sheet1
100
AcDbMText
10
90.0000000
20
160.0000000
30
0.0
40
2.4000001
41
28.8000011
42
28.8000011
43
5.4285698
71
5
72
5
1
ВВГнг 5*16
11
0.0000000
21
1.0000000
31
0.0000000
0
MTEXT
5
30056
100
AcDbEntity
8
Sheet1
100
AcDbMText
10
113.0000000
20
103.0000000
30
0.0
40
3.0000000
41
79.4357071
42
79.4357071
43
13.8750000
71
5
72
5
1
Вентиляция раздевалка\P       у туалета
11
0.0000000
21
1.0000000
31
0.0000000
0
MTEXT
5
30057
100
AcDbEntity
8
Sheet1
100
AcDbMText
10
101.0000000
20
184.0000000
30
0.0
40
2.4000001
41
25.0285683
42
25.0285683
43
11.0000000
71
5
72
5
1
ВА47-29\P   20А \P
11
0.0000000
21
1.0000000
31
0.0000000
0
MTEXT
5
30058
100
AcDbEntity
8
Sheet1
100
AcDbMText
10
133.0000000
20
120.0000000
30
0.0
40
3.0000000
41
38.7214203
42
38.7214203
43
13.8750000
71
5
72
5
1
Вентиляция\P   эл. цех
11
0.0000000
21
1.0000000
31
0.0000000
0
LINE
8
Sheet1
6
CONTINUOUS
10
133.0000000
20
178.0000000
11
128.0000000
21
188.0000000
0
LINE
8
Sheet1
6
CONTINUOUS
10
153.0000000
20
178.0000000
11
148.0000000
21
188.0000000
0
MTEXT
5
30059
100
AcDbEntity
8
Sheet1
100
AcDbMText
10
150.0000000
20
160.0000000
30
0.0
40
2.4000001
41
31.5428524
42
31.5428524
43
5.4285698
71
5
72
5
1
ВВГнг 5*2.5
11
0.0000000
21
1.0000000
31
0.0000000
0
MTEXT
5
30060
100
AcDbEntity
8
Sheet1
100
AcDbMText
10
141.0000000
20
184.0000000
30
0.0
40
2.4000001
41
25.0285683
42
25.0285683
43
11.0000000
71
5
72
5
1
ВА47-29\P   20А \P
11
0.0000000
21
1.0000000
31
0.0000000
0
MTEXT
5
30061
100
AcDbEntity
8
Sheet1
100
AcDbMText
10
130.0000000
20
160.0000000
30
0.0
40
2.4000001
41
31.5428524
42
31.5428524
43
5.4285698
71
5
72
5
1
ВВГнг 5*2.5
11
0.0000000
21
1.0000000
31
0.0000000
0
MTEXT
5
30062
100
AcDbEntity
8
Sheet1
100
AcDbMText
10
173.0000000
20
120.0000000
30
0.0
40
3.0000000
41
38.7214203
42
38.7214203
43
13.8750000
71
5
72
5
1
Вентиляция\Pмедницкой
11
0.0000000
21
1.0000000
31
0.0000000
0
LINE
8
Sheet1
6
CONTINUOUS
10
173.0000000
20
178.0000000
11
168.0000000
21
188.0000000
0
MTEXT
5
30063
100
AcDbEntity
8
Sheet1
100
AcDbMText
10
181.0000000
20
184.0000000
30
0.0
40
2.4000001
41
25.0285683
42
25.0285683
43
11.0000000
71
5
72
5
1
ВА47-29\P   20А \P
11
0.0000000
21
1.0000000
31
0.0000000
0
MTEXT
5
30064
100
AcDbEntity
8
Sheet1
100
AcDbMText
10
170.0000000
20
160.0000000
30
0.0
40
2.4000001
41
31.5428524
42
31.5428524
43
5.4285698
71
5
72
5
1
ВВГнг 5*2.5
11
0.0000000
21
1.0000000
31
0.0000000
0
MTEXT
5
30065
100
AcDbEntity
8
Sheet1
100
AcDbMText
10
213.0000000
20
129.0000000
30
0.0
40
3.0000000
41
17.0785694
42
17.0785694
43
6.9107099
71
5
72
5
1
ЩВС
11
0.0000000
21
1.0000000
31
0.0000000
0
LINE
8
Sheet1
6
CONTINUOUS
10
193.0000000
20
178.0000000
11
188.0000000
21
188.0000000
0
LINE
8
Sheet1
6
CONTINUOUS
10
213.0000000
20
178.0000000
11
208.0000000
21
188.0000000
0
MTEXT
5
30066
100
AcDbEntity
8
Sheet1
100
AcDbMText
10
201.0000000
20
184.0000000
30
0.0
40
2.4000001
41
25.0285683
42
25.0285683
43
11.0000000
71
5
72
5
1
ВА47-29\P   50А \P
11
0.0000000
21
1.0000000
31
0.0000000
0
MTEXT
5
30067
100
AcDbEntity
8
Sheet1
100
AcDbMText
10
211.0000000
20
225.0000000
30
0.0
40
2.4000001
41
24.1714211
42
24.1714211
43
11.0000000
71
5
72
5
1
ВА88-35\P  200А \P
11
0.0000000
21
1.0000000
31
0.0000000
0
MTEXT
5
30068
100
AcDbEntity
8
Sheet1
100
AcDbMText
10
190.0000000
20
160.0000000
30
0.0
40
2.4000001
41
31.5428524
42
31.5428524
43
5.4285698
71
5
72
5
1
ВВГнг 5*2.5
11
0.0000000
21
1.0000000
31
0.0000000
0
MTEXT
5
30069
100
AcDbEntity
8
Sheet1
100
AcDbMText
10
233.0000000
20
126.0000000
30
0.0
40
3.0000000
41
23.5071373
42
23.5071373
43
6.9107099
71
5
72
5
1
Резерв
11
0.0000000
21
1.0000000
31
0.0000000
0
LINE
8
Sheet1
6
CONTINUOUS
10
233.0000000
20
178.0000000
11
228.0000000
21
188.0000000
0
MTEXT
5
30070
100
AcDbEntity
8
Sheet1
100
AcDbMText
10
241.0000000
20
184.0000000
30
0.0
40
2.4000001
41
25.0285683
42
25.0285683
43
11.0000000
71
5
72
5
1
ВА47-29\P   20А \P
11
0.0000000
21
1.0000000
31
0.0000000
0
MTEXT
5
30071
100
AcDbEntity
8
Sheet1
100
AcDbMText
10
253.0000000
20
126.0000000
30
0.0
40
3.0000000
41
23.5071373
42
23.5071373
43
6.9107099
71
5
72
5
1
Резерв
11
0.0000000
21
1.0000000
31
0.0000000
0
MTEXT
5
30072
100
AcDbEntity
8
Sheet1
100
AcDbMText
10
273.0000000
20
126.0000000
30
0.0
40
3.0000000
41
23.5071373
42
23.5071373
43
6.9107099
71
5
72
5
1
Резерв
11
0.0000000
21
1.0000000
31
0.0000000
0
MTEXT
5
30073
100
AcDbEntity
8
Sheet1
100
AcDbMText
10
261.0000000
20
184.0000000
30
0.0
40
2.4000001
41
25.0285683
42
25.0285683
43
11.0000000
71
5
72
5
1
ВА47-29\P   20А \P
11
0.0000000
21
1.0000000
31
0.0000000
0
MTEXT
5
30074
100
AcDbEntity
8
Sheet1
100
AcDbMText
10
293.0000000
20
126.0000000
30
0.0
40
3.0000000
41
23.5071373
42
23.5071373
43
6.9107099
71
5
72
5
1
Резерв
11
0.0000000
21
1.0000000
31
0.0000000
0
LINE
8
Sheet1
6
CONTINUOUS
10
293.0000000
20
178.0000000
11
288.0000000
21
188.0000000
0
MTEXT
5
30075
100
AcDbEntity
8
Sheet1
100
AcDbMText
10
301.0000000
20
184.0000000
30
0.0
40
2.4000001
41
25.0285683
42
25.0285683
43
11.0000000
71
5
72
5
1
ВА47-29\P   63А \P
11
0.0000000
21
1.0000000
31
0.0000000
0
MTEXT
5
30076
100
AcDbEntity
8
Sheet1
100
AcDbMText
10
333.0000000
20
126.0000000
30
0.0
40
3.0000000
41
23.5071373
42
23.5071373
43
6.9107099
71
5
72
5
1
Резерв
11
0.0000000
21
1.0000000
31
0.0000000
0
MTEXT
5
30077
100
AcDbEntity
8
Sheet1
100
AcDbMText
10
321.0000000
20
184.0000000
30
0.0
40
2.4000001
41
25.0285683
42
25.0285683
43
11.0000000
71
5
72
5
1
ВА47-29\P   20А \P
11
0.0000000
21
1.0000000
31
0.0000000
0
LINE
8
Sheet1
6
CONTINUOUS
10
333.0000000
20
178.0000000
11
328.0000000
21
188.0000000
0
MTEXT
5
30078
100
AcDbEntity
8
Sheet1
100
AcDbMText
10
353.0000000
20
119.0000000
30
0.0
40
3.0000000
41
38.7214203
42
38.7214203
43
20.1250000
71
5
72
5
1
Вентиляция\P начальник\P     РММ
11
0.0000000
21
1.0000000
31
0.0000000
0
LINE
8
Sheet1
6
CONTINUOUS
10
353.0000000
20
178.0000000
11
348.0000000
21
188.0000000
0
MTEXT
5
30079
100
AcDbEntity
8
Sheet1
100
AcDbMText
10
350.0000000
20
160.0000000
30
0.0
40
2.4000001
41
31.5428524
42
31.5428524
43
5.4285698
71
5
72
5
1
ВВГнг 5*2.5
11
0.0000000
21
1.0000000
31
0.0000000
0
LINE
8
Sheet1
6
CONTINUOUS
10
213.0000000
20
138.0000000
11
213.0000000
21
178.0000000
0
LINE
8
Sheet1
6
CONTINUOUS
10
91.0000000
20
193.0000000
11
95.0000000
21
196.0000000
0
LINE
8
Sheet1
6
CONTINUOUS
10
153.0000000
20
204.0000000
11
213.0000000
21
204.0000000
0
LINE
8
Sheet1
6
CONTINUOUS
10
293.0000000
20
204.0000000
11
353.0000000
21
204.0000000
0
LINE
8
Sheet1
6
CONTINUOUS
10
91.0000000
20
195.0000000
11
95.0000000
21
198.0000000
0
LINE
8
Sheet1
6
CONTINUOUS
10
91.0000000
20
197.0000000
11
95.0000000
21
200.0000000
0
MTEXT
5
30080
100
AcDbEntity
8
Sheet1
100
AcDbMText
10
93.0000000
20
104.0000000
30
0.0
40
3.0000000
41
76.4357071
42
76.4357071
43
6.9107099
71
5
72
5
1
2 этаж компрессорная
11
0.0000000
21
1.0000000
31
0.0000000
0
MTEXT
5
30081
100
AcDbEntity
8
Sheet1
100
AcDbMText
10
121.0000000
20
184.0000000
30
0.0
40
2.4000001
41
25.0285683
42
25.0285683
43
11.0000000
71
5
72
5
1
ВА47-29\P   20А \P
11
0.0000000
21
1.0000000
31
0.0000000
0
MTEXT
5
30082
100
AcDbEntity
8
Sheet1
100
AcDbMText
10
153.0000000
20
107.0000000
30
0.0
40
3.0000000
41
70.4357071
42
70.4357071
43
20.1250000
71
5
72
5
1
  Вентиляция цеха\Pпо ремонту топливой\P     аппаратуры
11
0.0000000
21
1.0000000
31
0.0000000
0
MTEXT
5
30083
100
AcDbEntity
8
Sheet1
100
AcDbMText
10
193.0000000
20
123.0000000
30
0.0
40
3.0000000
41
31.0071373
42
31.0071373
43
13.8750000
71
5
72
5
1
Вытяжка\P 2 этаж
11
0.0000000
21
1.0000000
31
0.0000000
0
LINE
8
Sheet1
6
CONTINUOUS
10
253.0000000
20
178.0000000
11
248.0000000
21
188.0000000
0
MTEXT
5
30084
100
AcDbEntity
8
Sheet1
100
AcDbMText
10
161.0000000
20
184.0000000
30
0.0
40
2.4000001
41
25.0285683
42
25.0285683
43
11.0000000
71
5
72
5
1
ВА47-29\P   20А \P
11
0.0000000
21
1.0000000
31
0.0000000
0
MTEXT
5
30085
100
AcDbEntity
8
Sheet1
100
AcDbMText
10
221.0000000
20
184.0000000
30
0.0
40
2.4000001
41
25.0285683
42
25.0285683
43
11.0000000
71
5
72
5
1
ВА47-29\P   20А \P
11
0.0000000
21
1.0000000
31
0.0000000
0
MTEXT
5
30086
100
AcDbEntity
8
Sheet1
100
AcDbMText
10
224.0000000
20
250.0000000
30
0.0
40
3.0000000
41
60.3642845
42
60.3642845
43
6.9107099
71
5
72
5
1
Ввод от РП-1 ф.4
0
MTEXT
5
30087
100
AcDbEntity
8
Sheet1
100
AcDbMText
10
313.0000000
20
123.0000000
30
0.0
40
3.0000000
41
31.0071373
42
31.0071373
43
13.8750000
71
5
72
5
1
Вытяжка\P   зал
11
0.0000000
21
1.0000000
31
0.0000000
0
LINE
8
Sheet1
6
CONTINUOUS
10
313.0000000
20
178.0000000
11
308.0000000
21
188.0000000
0
MTEXT
5
30088
100
AcDbEntity
8
Sheet1
100
AcDbMText
10
341.0000000
20
184.0000000
30
0.0
40
2.4000001
41
25.0285683
42
25.0285683
43
11.0000000
71
5
72
5
1
ВА47-29\P   20А \P
11
0.0000000
21
1.0000000
31
0.0000000
0
MTEXT
5
30089
100
AcDbEntity
8
Sheet1
100
AcDbMText
10
281.0000000
20
184.0000000
30
0.0
40
2.4000001
41
25.0285683
42
25.0285683
43
11.0000000
71
5
72
5
1
ВА47-29\P   20А \P
11
0.0000000
21
1.0000000
31
0.0000000
0
MTEXT
5
30090
100
AcDbEntity
8
Sheet1
100
AcDbMText
10
310.0000000
20
160.0000000
30
0.0
40
2.4000001
41
28.8000011
42
28.8000011
43
5.4285698
71
5
72
5
1
ВВГнг 5*16
11
0.0000000
21
1.0000000
31
0.0000000
0
LINE
8
Sheet1
6
CONTINUOUS
10
93.0000000
20
204.0000000
11
153.0000000
21
204.0000000
0
LINE
8
Sheet1
6
CONTINUOUS
10
213.0000000
20
204.0000000
11
293.0000000
21
204.0000000
0
MTEXT
5
30091
100
AcDbEntity
8
Sheet1
100
AcDbMText
10
388.0000000
20
14.0000000
30
0.0
40
1.5000000
41
55.2155075
42
55.2155075
43
9.9414997
71
5
72
5
1
            ОАО "Газпром"\PООО "Газпром трансгаз Саратов"\P                УТТиСТ
0
ENDSEC
0
EOF
